<svg width="17" height="18" viewBox="0 0 17 18" fill="none" xmlns="http://www.w3.org/2000/svg">
<path d="M1.83268 5.66663H15.166V16.5C15.166 16.721 15.0782 16.9329 14.9219 17.0892C14.7657 17.2455 14.5537 17.3333 14.3327 17.3333H2.66602C2.445 17.3333 2.23304 17.2455 2.07676 17.0892C1.92048 16.9329 1.83268 16.721 1.83268 16.5V5.66663ZM3.49935 7.33329V15.6666H13.4993V7.33329H3.49935ZM5.99935 8.99996H7.66602V14H5.99935V8.99996ZM9.33268 8.99996H10.9993V14H9.33268V8.99996ZM4.33268 3.16663V1.49996C4.33268 1.27895 4.42048 1.06698 4.57676 0.910704C4.73304 0.754423 4.945 0.666626 5.16602 0.666626H11.8327C12.0537 0.666626 12.2657 0.754423 12.4219 0.910704C12.5782 1.06698 12.666 1.27895 12.666 1.49996V3.16663H16.8327V4.83329H0.166016V3.16663H4.33268ZM5.99935 2.33329V3.16663H10.9993V2.33329H5.99935Z" fill="white"/>
</svg>
